<?xml version="1.0" standalone="no"?><!DOCTYPE svg PUBLIC "-//W3C//DTD SVG 1.1//EN" "http://www.w3.org/Graphics/SVG/1.1/DTD/svg11.dtd"><svg t="1586518295917" class="icon" viewBox="0 0 1024 1024" version="1.1" xmlns="http://www.w3.org/2000/svg" p-id="9777" xmlns:xlink="http://www.w3.org/1999/xlink" width="200" height="200"><defs><style type="text/css"></style></defs><path d="M512.004 31.744l415.688 239.992v480.006L512.004 991.758 96.316 751.742V271.736L512.004 31.744z" fill="#F6D4B0" p-id="9778"></path><path d="M512.3 511.75L927.692 271.9v479.842L512.3 991.586V511.75z" fill="#A67C52" p-id="9779"></path><path d="M511.692 511.75v479.836L96.316 751.742V271.9l415.376 239.85z" fill="#C69C6D" p-id="9780"></path><path d="M512.004 31.744l401.844 232.014-401.844 231.978L110.16 263.758 512.004 31.744z" fill="#E3BA8D" p-id="9781"></path><path d="M671.988 123.758l92.89 53.626-412.906 238.352-92.858-53.626L671.988 123.758z" fill="#F2CDA4" p-id="9782"></path><path d="M351.66 415.736v135.038l-95.36-55.038v-135.048l95.36 55.048zM712.004 147.75l11.312 6.516-411.312 237.478-11.312-6.516L712.004 147.75z" fill="#DAB083" p-id="9783"></path><path d="M591.958 889.086v-63.562l47.688-27.562v63.562l-47.688 27.562z m-23.83-49.782l47.688-91.124 47.688 36-95.376 55.124z" fill="#252525" p-id="9784"></path><path d="M170.628 700.96v40.124l14.906 8.624c1.656 0.938 2.984 3.484 2.984 5.688 0 2.172-1.328 3.188-2.984 2.25L149.8 736.976c-1.672-0.954-2.984-3.5-2.984-5.704 0-2.218 1.312-3.188 2.984-2.25l14.89 8.624V697.54c-13.406-9.782-23.844-30.796-23.844-49.172V604.68l26.734 15.438c0.032 0 0.032 0.032 0.078 0.032 0.032 0 0.032 0.032 0.062 0.032l26.782 15.484v43.702c0.002 18.406-10.466 27.328-23.874 21.592z m5.986-75.624l-11.922-6.876-5.968 36.282 5.968 3.422-5.968 28.344 17.89-29.39-5.984-3.438 5.984-28.344zM313.192 774.274c-0.562-6.188-4.188-12.906-8.734-15.546-4.954-2.86-8.954 0.172-8.954 6.766 0-6.594-4-14.234-8.938-17.078-4.938-2.86-8.954 0.172-8.954 6.75 0-5.156-2.516-10.922-5.938-14.562V799.4c0 2.188 1.328 4.75 2.984 5.688 1.624 0.954 2.954-0.062 2.954-2.282v-7.938c0-2.156 1.36-3.188 2.984-2.234 1.656 0.954 3 3.5 3 5.704v7.938c0 6.594-4.016 9.61-8.938 6.75-4.954-2.844-8.968-10.516-8.968-17.094v-58.782c-3.454-0.344-5.938 2.468-5.938 7.656 0-6.578-4-14.218-8.954-17.062-4.922-2.844-8.922 0.172-8.922 6.75 0-6.578-4-14.25-8.968-17.094-4.546-2.656-8.172-0.11-8.718 5.454-0.094-0.876-0.204-1.796-0.204-2.672 0-29.438 18.5-42.672 41.704-31.124v-4.344c0-2.218 1.328-3.218 3-2.282 1.624 0.954 2.984 3.532 2.984 5.704v4.39c23.204 15.376 41.704 49.906 41.704 79.344 0 0.872-0.092 1.622-0.186 2.404z" fill="#363636" p-id="9785"></path></svg>